/* XPM */
static char * bed128_xpm[] = {
"128 128 69 1",
".	c None",
"+	c #E0DE00",
"@	c #F2F104",
"#	c #FFFF00",
"$	c #CCCC00",
"%	c #C3C000",
"&	c #D2D113",
"*	c #CCCC33",
"=	c #E7E72D",
"-	c #CCCC66",
";	c #D6D74F",
">	c #FFFF33",
",	c #BCC026",
"'	c #E4E4A8",
")	c #FFFF99",
"!	c #F1F1F1",
"~	c #F7F7F6",
"{	c #FAFAFA",
"]	c #EBEBDA",
"^	c #EBEBEB",
"/	c #FCFCFC",
"(	c #E1E2E2",
"_	c #FEFEFC",
":	c #FEFEFE",
"<	c #FFFFFF",
"[	c #D8D9D9",
"}	c #E4E4C5",
"|	c #5788D9",
"1	c #6699CC",
"2	c #F8FAFD",
"3	c #CCCCCC",
"4	c #FFFF66",
"5	c #73A2DC",
"6	c #D8DFF0",
"7	c #FFFFCC",
"8	c #B9C7E9",
"9	c #E1E8F3",
"0	c #F5F7FA",
"a	c #3366CC",
"b	c #82B2ED",
"c	c #99CCFF",
"d	c #92BEF8",
"e	c #3363B3",
"f	c #CCD8F1",
"g	c #F0F4FA",
"h	c #E9EEF8",
"i	c #FFFFFE",
"j	c #FEFEF8",
"k	c #003399",
"l	c #CCCC99",
"m	c #336699",
"n	c #AFCE98",
"o	c #9999FF",
"p	c #6666CC",
"q	c #6C58E2",
"r	c #99CCCC",
"s	c #9966FF",
"t	c #CCCCFF",
"u	c #666699",
"v	c #A2AF52",
"w	c #7B97AD",
"x	c #6666FF",
"y	c #BCC54E",
"z	c #9999CC",
"A	c #8CAE9C",
"B	c #669999",
"C	c #999999",
"D	c #6633CC",
"E	c #9966CC",
"................................................................................................................................",
"................................................................................................................................",
"................................................................................................................................",
".................................................................+@##...........................................................",
"................................................................$+@@@###........................................................",
"...............................................................$$+++@@####......................................................",
"..............................................................%$$+++++@@####....................................................",
"..............................................................%$$+++++++@@####..................................................",
"..............................................................%$$+$$$+++++@@####................................................",
"..............................................................%$$+$$$$+$++++@@####..............................................",
"..............................................................%$$+&*..+$$$++++@@####............................................",
"..............................................................%$$++@....+$$$++++@@####..........................................",
"..............................................................%$$++@......+$$$++++@@####........................................",
"..............................................................%$$+=@........$$$&++++@@####......................................",
"..............................................................%$$+@@..........-;&+++++@@####....................................",
"..............................................................%$$+@@..........-;&$$$++++@@####..................................",
"..............................................................%$$+@@..........-;=$$$$$++++@@####................................",
"..............................................................%$$+@#..........-;=#.+$$$$++++@#####..............................",
"..............................................................%$$+@@..........-;=#...+$$$$++++@#####............................",
"..............................................................%$$+@#..........-;=#.....+$$$$++++@#####..........................",
"..............................................................%$$+@@..........-;=#.......+$$$$++++@#####........................",
"..............................................................%$$+@#..........-;=#.........-&$$$++++@#####......................",
"..............................................................%$$+@@..........-;=#.........-*&$$$$++++@#####....................",
"..............................................................%$$+@@..........-;=#.........-;=#$%$$$++++@#####..................",
"..............................................................%$$+@@..........-;=#.........-;=#..$%$$$++++@#####................",
"..............................................................%$$+@@..........-;=#.........-;=#....$%$$$++++@#####..............",
"..............................................................%$$+@@..........-;=#.........-;=#......$%$$$++++@####@............",
"..............................................................%$$==>..........-;=#.........-;=#........$%$$$++++@####...........",
"..............................................................,;''')!!~{......-;=#.........-;=#..........$$$$$+++@@####.........",
"..............................................................!!!]]^!!!!~{{...-;=#.........-;=#..........-;&$$$$+++@#####.......",
"............................................................/^!!~~{///////{//.-;=#.........-;=#..........-;=$%%$$$+++@#@@#......",
"...........................................................(^{///_:<<:::___//{''=#.........-;=#..........-;=#..%%$$$+++@#@#.....",
"..........................................................[!:__::<<<<<<<<:::_/]})#.........-;=#..........-;=#....%%$$$+++##.....",
".........................................................[~<<<<<<<<<<<<<<<<<<_//{{~........-;=#..........-;=#.....$%%$$$+@##....",
"........................................................[~<<<<<<<<<<<<<<<<<<<<://///{......-;=#..........-;=#.......$%$$$+###...",
".......................................................[/<<<<<<<<<<<<<<<<<<<<<<:<:::_:.....-;=#..........-;=#.........+$$+@##...",
".......................................................~::<<<<<<<<<<<<<<<<<<<<<<<<<<<<<<...-;=#..........-;=#..........%$++##...",
"......................................................~~{/:<<<<<<<<<<<<<<<<<<<<<<<<<<<<_:<<';=#..........-;=#..........%$$+##...",
"....................................................../!^!~__<<<<<<<<<<<<<<<<<<<<<<<://~~{~]'=#..........-;=#..........%%$+##...",
"...................................................||12!(((^!~_:<<<<<<<<<<<<<<<<<<:/~!^^^((3}'4..........-;=#..........%%$+##...",
"..................................................||||56[[[[[(^!~/:<<<<<<<<<<<<<</~!^((([[3337)~{{.......-;=#..........%%$+##...",
"................................................|||||||589[[[[[((^^~{:<<<<<<<<<</~^(([[[[[(!{///{{{{{....-;=#..........%%$+##...",
"...............................................||||||||||5890([(([[(^!~_<<<<<<<:~^(([[[[!~~//___////{//..-;=#..........%%$+##...",
"................................................||||||||||a|b90~^[[3[(^!{:<<<<:{!^([[[!{///_:<<:::___//{{';=#..........%%$+##...",
"..............................................cccd5||||||eeee|592:~[[[[(^~/<<</!^([[[~:__::<<<<<<<<:::_/{}'=>..........%%$+@#...",
"...........................................||bcccccd5||aeeeeee|1b60/~([[((!/_/~^^[[(<<<<<<<<<<<<<<<<<<<_/~]7)..........%%$+@#...",
".........................................|||ae|bcccccd|eeeeee|||||5fg/!^([(!~~^([[(<<<<<<<<<<<<<<<<<<<<<:{~~7/.........%%$+@#...",
"........................................||||||ae|bccd551|eea||||||||58h0^(((^^([[(<<<<<<<<<<<<<<<<<<<<<<<:i_j:_:.......%%$+@#...",
".......................................||||||||||ea|5555555||||||||||||5fg((([[[~<::<<<<<<<<<<<<<<<<<<<<<<<<<<<<<<.....%%$+@#...",
".....................................|..5|||||||||ekke15bcccb||||||||eeee186([[(/_~/:<<<<<<<<<<<<<<<<<<<<<<<<<<<<:/~{/.%%$+@#...",
"....................................|.ccccb|||||aeeeekk|dcccccb|||||eeeeee|5f9{_{!((!~{:<<<<<<<<<<<<<<<<<<<<<<</~!!!^^];%$+@#...",
"...................................|||bcccccb||eeeeeee|ae|dcccccb5|eeeeea||||5fg/!([((^^!/<<<<<<<<<<<<<<<<<:/~!!^^^([[[-,$+@#...",
".................................|||||a|5ccccb1eeeeea||||ae|bcccc551|ee||||||||589[[[[[((^!/:<<<<<<<<<<<<:{~!!^((([[33l%%$+@#...",
"................................||||||||a|5db5551ee||||||||ae|55555555|||||||||||5d83[[[[((^^~_<<<<<<<<<</~!^(([[33333l%%$+@#...",
"..............................||||||||||||eee1555bd5||||||||||ekke15bcd5||||||||||||586[[[([[(^~/<<<<<<<:~!^(([[[[(([3l%%$+@#...",
".............................|.c5||||||||eeekme1bcccc5|||||||eeeekk5cccccb||||||||eeee18g~![[3[(^~/<<<<</!!^([[[(^!^([l%%$+@#...",
"............................|.ccccb|||||eeeeeeme|bccccc5|||eeeeeeeae1dcccccb|||||eeeeee|56g/![3[[(^~:<<_~!^([[[!!!~/~(l%%$+@#...",
"......+@@##...............||||bcccccb|aeeeeeee||aa|bcccccb1eeeee||||ae|dcccccb5|eeeeea||||5fh!!([[((^~{~!^^[3[:~~{:_~^l%%$+@#...",
".....$+@@@###............|||||a|5cccd51eeeeea||||||e|bccb5551ee|||||||ae|bcccc551|ee||||||||589h!^([(^^!^([3[<:<:__/~^l%%$+@#...",
"....$$+@@@@####.........||||||||a|5b55551ee||||||||||eaee1555b5|||||||||ae|b5555555||||||||||||df9^(((((([[[<<<:__//~^'%%$+@#...",
"...%%$+++++@@####.....||||||||||||mee1555bd5|||||||||aeekme1dccd||||||||||aekke15bcd5||||||||||||bf9^(([[[!<<<:__///~^'%%$+@#...",
"...%$$+++++++@@####..|.c5|||||||aeeekme1dcccc5||||||eeeeeee|dccccd5|||||||eeeekk5ccccd5||||||||||||5f6([[(/<<:__////~^}*%$+@#...",
"...%$$+$$$+++++@@###;.ccccb||||eeeeeeeea|bccccc5|||eeeeeea|aa1dccccd5|||eeeeeeeae5dcccccb|||||eeeea||5f60:<<:__////{!^}*%$+@#...",
"...%$$+$$$$$$++++@@#=;ncccccb|eeeeeeea||aa|bccccc51eeeee|||||ae|bcccccb1eeeee||||ae|dcccccb||eeeeee||||5fhg2_/////{~!^'*%$+@#...",
"...%$$+$&..;$$$++++@@##=ncccb51eeeee|||||||e|bcd55551ee|||||||||e|bccb5551ee|||||||ae|bcccc1eeeeea|||||||58h/////{~!^}&$%$+@#...",
"...%$$+&=....*$$$++++@@##=n555551ee||||||||||aeee1555b||||||||||||eaee1555b||||||||||ae|bc551|ee||||||||||o6////{~^]}&$$%$+@#...",
"...%$$++#.....b*$$$++++@@##@-b555dd5|||||||||eeekme5cccd||||||||||aeekme1dccb||||||||||a|555555dd5||||||pqof///{!^]}=++$%$+@#...",
"...%$$+@#....|bcd&$$$++++@@##@-rccccc5|||||aeeeeeee1dccccd5||||||eeeeeee|dccccd||||||||ekke15bccccd5|||pqqst//~!^]'@@+#$%$+@#...",
"...%$$+@#...||e|bc-&$$$++++@@###;rccccc5||eeeeeee||aa1dccccd5|||eeeeeea|aa5dccccd5||||eeeekkae5cccccd5qqqqst{~!^}'@@@#+$%$+@#...",
"...%$$+@#.ee||||a|-*&%$$$++++@@###;bccccd51eeeee|||||ae|bccccc51eeeee|||||ae|dccccd5eeeeeee|||ee1dcccdqqqqst~!]}@@@##+$$%$+@#...",
"...%$$+@#ue|||||||-;=&v$$$$++++@@###=bc555551ea|||||||||e|bcd55551ee||||||||ae|bccd1eeeee|||||||ae5ccdqqqqq8!]}@@@#+++$%%$+@#...",
"...%$$+@#m||||||||-;=#5b&$$$$++++@####=5cd555d||||||||||||eeee1555b||||||||||||e|b5551ee|||||||||ppdcdqqqqq8]}@@@#+++$%%%$+@#...",
"...%$$+@#m||||||||-;=#bcd5&$$$$++++@####@5dccccd||||||||||eeekme5cccb||||||||||aee1555bccb|||||||qqdcdqqqq|3'@###++$$%%%%$+@#...",
"...%$$+@#mqq|||||e-;=#e1dcb5&$$$$++++@####@5dccccd5|||||aeeeeeee5dccccd|||||||aeekme1bcccccb|||pqqqdcdqq||w;@@#@++$$$..%%$+@#...",
"...%$$+@#eqqqq||ee-;=#e|a|bcb5&$$$$++++@#####5dccccd5||eeeeeee||aa5dccccd5|||eeeeeee|ae5dccccb|qqqqdcdx||w*#@#+++$$%...%%$+@#...",
"...%$$+@#eqqqqqeee-;=#||||e|bc|y&%%$$++++@#####|bccccd51eeeee|||||ae|dccccd|eeeeeea||||ae1dcccdqqqqdcd51w&###+++$$%....%%$+@#...",
"...%$$+@#eqqqqqeee-;=#||||||a||-*&%%$$$++++@#####|bc555551ea||||||||ae|bccb1eeeee||||||||aa5ccdqqqqdd5w*@##@++$$$%.....%%$+@#...",
"...%$$+@#mqqqqqeee-;=#1||||||||-;=#1&%$$$++++@####=|bcd555b||||||||||||e555551ea||||||||||ppdcdqqqqb5z;#@#@++$$%.......%%$+@#...",
"...%$$+@#uepqqqeee-;=#1||||||||-;=#e|5y%$$$++++@####=|5cccccb||||||||||eee1555dccb|||||||qqqdcdqqqpA;@###+++$$%........%%$+@#...",
"...%$$+@#,uuepqeee-;=#p||||||||-;=#||bcdy%$$$++++@####;|5dccccd|||||||eeekme1bcccccb||||qqqqdcdqq|B*###@+++$$%.........%%$+@#...",
"...%$$+@@+&,Bepeee-;=#qqq|||||e-;=#||a1dcd*%$$$++++@####y|5dccccd5||aeeeeeee|ae5dccccb5qqqqqdcd||w*###@++$$$...........%%$+@#...",
"...%$$+@@#+++Cweee-;=#qqqqq||ee-;=#||||a|bcr,$$$$++++@####w||dccccbeeeeeee|||||ae1dcccdqqqqqdcd|w=###@++$$%............%%$+@#...",
"...%$$+@++##@#@Cme-;=#qqqqqqqee-;=#||||||e|bcy$$$$$++++@####w||bcd51eeeee||||||||ae5dcdqqqqqdd5w@###+++$$%..............%$+@....",
"...%$$+@++++##@@*C-;=#qqqqqqqee-;=#||||||||a|-*&%%$$$+++###@##1|555551e|||||||||||ppdcdqqqqqb5y###@+++$$........................",
"...%$$+@$$$+++##@#@==#pqqqqqqee-;=#1||||||eee-;=#Ay%$$$+++##@@#|||1555cccb|||||||pqqdcdqqqqp11###@++$$$.........................",
"...%$$+@#%%$++++##@#@#me|qqqqee-;=#p|||||eeee-;=#dcry%$$$+++##@#|||a|5cccccb||||qqqqdcdqqq|w+###@++$$%..........................",
"...%$$+@#.%$$$++++##@#=wu||qqee-;=#qqq||eeeee-;=#a1dcr,%$$$+++###||||ae5dccccd|qqqqqdcdqq1w=##@@++$$%...........................",
"...%$$+@#...%$$$++++##@#*me|pem-;=#qqqqeeeeee-;=#||a|bcr,%$$$+@###|||||ae1dccdoqqqqqdcd|w&###@+++$$.............................",
"...%$$+@#.....%$$$++++##@#*umeu-;=#qqqqeeeeeq-;=#||||e|bc5v$$$+###|||||||ae5ccdqqqqqdd5w+@##@++$$$..............................",
"...%$$+@#.......%$$$++++##@#;uu-;=#qqqqeeeeq|-;=#||||||eee15A$+@##||||||||ppdcdqqqqqb5w@##@@++$$%...............................",
"...%$$+@#.........%$$$++++##@@y-;=#qqqqeeeeqq-;=#|||||eeekme1y++##|||||||pqqdcdqqqqpA=###@+++$$.................................",
"...%$$+@#...........%$$$++++##@@==#pqqqeeeeqq-;=#q|||eeeeeeev$$+##cc||||pqqqdcdqqq|w+###@+++$$..................................",
"...%$$+@#.............%$$$++++##@#@me|peeeeqq-;=#qqpeeeeee||,%$+##cdcd|qqqqqdcdqq|w+##@@++$$$...................................",
"...%$$+@#..............%%$$$++++##@@uB|eeeeqq-;=#qqeeeeea|||,%$+##dcccdqqqqqdcd||1@##@@++$$.....................................",
"...%$$+@#................%%$$$++++##@@mmeeeqq-;=#qqeeeeqq|||,%$+##Dqdcdqqqqqdd511###@+++$$......................................",
"...%$$+@#..................%%$$$++++##@@emeqq-;=#qqeeeeqq||1%%$+##pqdcdqqqqqdd1@###@+++$$.......................................",
"...%$$+@#....................%%$$$++++##@@mme-;=#qqeeeeqqqq1%%$+##Eqdcdqqqq|bA###@@++$$$........................................",
"...%$$+@#......................%%$$$++++##@@m-;=#qqeeeeqqqqp%%$+##Eqdcdqq|||1###@@++$$..........................................",
"....$$+@.........................%%$$$++++##@@==#pqeeeeqqqqq%%$+@#pqdcdq|1p@###@+++$$...........................................",
"...................................%%$$$++++##@@#e|eeeeqqqqq%%$+@#pqdcd|w&###@@+++$$............................................",
".....................................%%$$$++++##@@mmeeeqqqqq%%$+@#pqdd5w+###@@++$$..............................................",
".......................................%%$$$++++##@=eeeqqqqq%%$+@#pqb5w+###@@++$$...............................................",
".........................................%%$$$++++##@=e|a|qq%%$+@#pq5w###@@+++$$................................................",
"..........................................%%%$$$++++##@=umu|%%$+@#1pE+##@@+++$..................................................",
"............................................%%%$$$++++##@=+m%%$+@#.$+##@@++$$...................................................",
"..............................................%%%$$$++++##+*%%$+@#+##@@@++$$....................................................",
"................................................%%%$$$++++#+%%$+@###@@+++$......................................................",
"..................................................%%%$$$++++%%$+@@#@@+++$.......................................................",
"....................................................%%%$$$+%%%$+@#@@++$$........................................................",
"......................................................%%%$$$%%$+@@@++$$.........................................................",
"........................................................%%%%%%$+@+++$...........................................................",
"..........................................................%%%%$+@++$............................................................",
"............................................................%%$+@++.............................................................",
"............................................................%%$+@++.............................................................",
"............................................................%%$+@@..............................................................",
"............................................................%%$+@#..............................................................",
"............................................................%%$+@#..............................................................",
"............................................................%%$+@#..............................................................",
"............................................................%%$+@#..............................................................",
"............................................................%%$+@#..............................................................",
"............................................................%%$+@#..............................................................",
"............................................................%%$+@#..............................................................",
"............................................................%%$+@#..............................................................",
"............................................................%%$+@#..............................................................",
".............................................................$$+@...............................................................",
"................................................................................................................................",
"................................................................................................................................",
"................................................................................................................................"};
