/* XPM */
static char * bed32_xpm[] = {
"32 32 21 1",
" 	c None",
".	c #CCCC00",
"+	c #FFFF00",
"@	c #CCCC33",
"#	c #E3E3E3",
"$	c #C0C0C0",
"%	c #F1F1F1",
"&	c #FFFFFF",
"*	c #CCCC66",
"=	c #0000FF",
"-	c #6699CC",
";	c #DDDDDD",
">	c #99CC99",
",	c #6666CC",
"'	c #CCCC99",
")	c #99CCCC",
"!	c #666699",
"~	c #9999CC",
"{	c #A6CAF0",
"]	c #999999",
"^	c #B2B2B2",
"                                ",
"                .+++            ",
"               .++@.+++         ",
"               .+ .+@.+++       ",
"               .+ .+  @.+++     ",
"               .+ .+  .+@.+++   ",
"               .+ .+  .+  ..++  ",
"              #$###+  .+  .+..+ ",
"             #%&&&&&# .+  .+ *+ ",
"            %%#&&&&&&#$+  .+ .+ ",
"            ===#%&&&&#$$#&.+ .+ ",
"          ==--==##%%#$&&&&&# .+ ",
"         --===--===$$&&&&&&&#.+ ",
"        ===--===--==$$%%&&&#$#+ ",
"      ==--===--===--===;#%#$$%+ ",
"     --===--===--===--===;$$&$+ ",
"  .++*>--===--===--===--===&&#+ ",
" .+.+++@>--===--===--===,,,&'++ ",
" .+,.+.++@>--===--===--==,,#+@+ ",
" .+=.+-.+++@)--===--===,=,*+@.+ ",
" .+,.+!).+@+++)--===,,=,~++* .+ ",
" .+=.+==.+{...++=--==,=]+.'  .+ ",
" .++++,,.+=^.+.@+=,,=,*+@       ",
" .+.+++=.+,=.+-@+==,,@+*        ",
" .+  .++.+=,.+=.+,=^@+'         ",
" .+    .++.=.+,.+,*++'          ",
"         .++.+=.+*+@            ",
"           .++..++'             ",
"             .+.+'              ",
"               .+               ",
"               .+               ",
"                                "};
