/* XPM */
static char * bed48_xpm[] = {
"48 48 24 1",
" 	c None",
".	c #FFFF00",
"+	c #CCCC00",
"@	c #CCCC33",
"#	c #E3E3E3",
"$	c #FFFFFF",
"%	c #C0C0C0",
"&	c #6699CC",
"*	c #A6CAF0",
"=	c #F1F1F1",
"-	c #CCCC99",
";	c #6666CC",
">	c #DDDDDD",
",	c #336699",
"'	c #3366CC",
")	c #CCCC66",
"!	c #99CCCC",
"~	c #99CC66",
"{	c #9999CC",
"]	c #666699",
"^	c #ADA990",
"/	c #999999",
"(	c #99CC99",
"_	c #999966",
"                                                ",
"                         ...                    ",
"                        ++++..                  ",
"                        ++ +++..                ",
"                        +.   +++..              ",
"                        +.   +.+++..            ",
"                        +.   +.   ++..          ",
"                        +.   +.    @++..        ",
"                        +.   +.    +.+++..      ",
"                        +.#$$$$    +.  +++..    ",
"                        ##$$$$$$$  +.   @+++..  ",
"                       %$$$$$$$$$$ +.   +.+++.. ",
"                      $$$$$$$$$$$$$+.   +.  ++. ",
"                     $$$$$$$$$$$$$#+.   +.   +. ",
"                   &*=#=$$$$$$$$$=%-$$$$$.   +. ",
"                  ;;;&>#%=$$$$$=#%#$$$$$$$$  +. ",
"                 **&;;,&>%%=$##%%$$$$$$$$$$$ +. ",
"               ;;;;&&;;;;;*###%=$$$$$$$$$$$$ +. ",
"              **;;;,,&*&;;,,&===$$$$$$$$$$$# +. ",
"             ;;&*&,,;;;&*&;;;;*##%=$$$$$$$%%#+. ",
"           &&;;;,,&*;;;,,;*&;;;;&>%%=$$$$=%##+. ",
"          ;&**;,,,;&**;,';;&*&;,,;&>####%%=$=). ",
"  ++...  ;;;;,&&&;;;,,;*&;;;;,;*&;;;&>#%#$$$=). ",
" +++++..!*&;,,,;**&;,,;;**&;,,;&**&;,,;>$$$$=). ",
" +.  @++..~&;;;;;;;&&;;;;;;&&;;;;;*&;;;;&=$=)+. ",
" +.  ;{@++..)**&;,,;&**&;,,;&**&;,,;&*&;;=#).+. ",
" +. ;;;))@++..~&&;;;;;;&&;;;;;;&;,;;;;*;;#@.++. ",
" +.,;;;).&~@++..~!*&;;,,;**&;;,,&**&;;*;]..+++. ",
" +.,;;,).;;&@+++..~*&&,;;;;*&,,;;;;*;;*^.+++ +. ",
" +.,;;,).;;;).~@++..~&*&;;;,;&&&;;;&;;~.+++  +. ",
" +..@/,).;;,).;&(@++..~&*&,,;;;&*;;&{@.++    +. ",
" +.+..@@.;;,).;;,^.@++..;&&&;;;;*;;;..++        ",
" +.+++...];,).;,,^.&~@++.&;&*&;;*&;.+++         ",
" +.   ++..;,).;,,^.;;;/@.;;;;*;;&).++           ",
" +.     ++..@.;,;^.;,,,+.;&;;*;]..++            ",
" +.       ++.._,'^.;,;;+.;*;;*/.+++             ",
" +.         ++.._^.',;;+.;*;;~.++               ",
"             +++...,,;;+.;*]@.++                ",
"                ++..;];+.;~..++                 ",
"                 +++..@+.+.++                   ",
"                   +++.+..++                    ",
"                     +++.++                     ",
"                       +.                       ",
"                       +.                       ",
"                       +.                       ",
"                       +.                       ",
"                       +.                       ",
"                                                "};
