/* XPM */
static char * bed64_xpm[] = {
"64 64 62 1",
". 	c None",
"+	c #E1E000",
"@	c #ECEB00",
"#	c #F5F402",
"$	c #FFFF00",
"%	c #C5C200",
"&	c #D9D700",
"*	c #CCCC00",
"=	c #CFCF5F",
"-	c #D1D017",
";	c #E4E398",
">	c #FFFFCC",
",	c #FAFAFA",
"'	c #F4F4F5",
")	c #FCFCFC",
"!	c #FEFEFE",
"~	c #FFFFFF",
"{	c #F2F2DB",
"]	c #E6EBF6",
"^	c #EDEDED",
"/	c #E4E4E4",
"(	c #E6E6CC",
"_	c #5788D9",
":	c #DDE3F4",
"<	c #D9D9D9",
"[	c #CCCCCC",
"}	c #FAFAED",
"|	c #CBD7ED",
"1	c #99CCFF",
"2	c #84B5EE",
"3	c #6595DF",
"4	c #3363B3",
"5	c #3366CC",
"6	c #78A2E9",
"7	c #74A5D7",
"8	c #6699CC",
"9	c #CCCC66",
"0	c #93C2F6",
"a	c #003399",
"b	c #C4C845",
"c	c #336699",
"d	c #FAFCFE",
"e	c #333399",
"f	c #6C5BE2",
"g	c #BAACF0",
"h	c #E8E915",
"i	c #99CCCC",
"j	c #8DACAB",
"k	c #E5E541",
"l	c #6666CC",
"m	c #9999CC",
"n	c #669999",
"o	c #999999",
"p	c #7491BD",
"q	c #6666FF",
"r	c #B6C75E",
"s	c #D1D939",
"t	c #999966",
"u	c #A7C3A6",
"v	c #99CC99",
"w	c #CCCC33",
"x	c #AAB64E",
"................................................................",
"................................................................",
"................................+@#$............................",
"...............................%&&+@#$..........................",
"...............................*&**&+@#$........................",
"...............................%&+.&*&+@#$......................",
"...............................*+$...**&+@#$....................",
"...............................%+$....*=*&+@#$..................",
"...............................%+$....*=-&**+@$$................",
"...............................%+$....*$..+**&+#$$..............",
"...............................%+$....*$....&-*&+#$$............",
"...............................%+$....*$.....*-**&+#$$..........",
"...............................%+$....*$.....*$.***&+#$$........",
"...............................%+#....*$.....*$...***&+#$$......",
"...............................;>>,,..*$.....*$.....*-*&+#$$....",
"..............................',)!!!))*$.....*$.....*$***&@$#...",
".............................'!!~~~~!!){.....*$.....*$..***&$$..",
"............................,~~~~~~~~~~)))...*$.....*$....*&&$..",
"...........................,)~~~~~~~~~~~~~~~.;$.....*$.....*+$..",
"..........................]^/^,~~~~~~~~~)'^^^(;.....*$.....*+$..",
"........................___:<<</'!~~~~~!'^/<<[(},...*$.....*+$..",
".......................______|<<<<'!~~~'^<<[^'!!))).;$.....*+$..",
"......................1123__444:'<[/'~'^/[/'!~~~~!!){;.....*+$..",
"....................__56112444___|'/<^^/<'!~~~~~~~~~)}})...*+$..",
"...................3____4_7773_____8]/<[!!~~~~~~~~~~~~~~~)~9+$..",
"..................0113__44a_1113__4443]''/'!~~~~~~~~~~!'^^^;+$..",
"................____012444__5_01774_____][<<^)!~~~~~~,^/<<[=+$..",
"...............______48723____5a4716______|<<</'!~~!'^/<[<[b+$..",
"............._1103_544452116_444440112__444_|^<[/'~'^/<</,^b+$..",
"..&@$$......____117444___561774____42107_4____0'^<^^/</)!)'b+$..",
".%&++@$$..._____548723____54c810_____4a820______6d/<<,~!))^=+$..",
".%&*=&+@$$110__444450116_444553110__444531113__44_3]d~!)),^9+$..",
".%&&.==&+@$$107444___520774______12784___5_117444___3:)),'(*+$..",
".%&$..0-*&+@$$7723____44c712_____4e4013____587726___fg),^(h&+$..",
".%&$..53i=*&+@$$0116_444_53110__444_50113__44a50116ffg,^;#@&+$..",
".%&$c___j=$**&+@$$27774_____317784____5218445___421ffg^k#@&*+$..",
".%&$l___j=$0j**&+#$$6012_____4e4013____547702___f61ffmk#@&**+$..",
".%&$lfl5n=$_60o**&+#$$6110_4444_50113_444453112ff61_ph#+&%.*+$..",
".%&#lff4n=$____9*%*&+#$$307785____521844_____31qf66r#@+*%..*+$..",
".%&#4ff4n=$____=$4j%*&+@$$30103____457702___lf1qfps#@&*....*+$..",
".%&@-tl4n=$f___=$__0u%*&+@$$10103_444453112fff16ph#@&*.....*+$..",
".%&@@@h.nk$fff4=$____2b**&+@$$320_44_____31fff0ph#+&*......*+$..",
".%&+=+@#hk$fff4=$____49$v%*&@$$__7706___lf1fflp#@+*%............",
".%&@=*&+@#hp_f4=$ff_44=$_0u%=&$$___6112fff1flr#@+*..............",
".%&$..%*&+@#s.4=$ff444=$___2j*&$#____61fff0ph#@&*...............",
".%&$....%*&+@#w=$ff44f=$___4c_w$$____f1fflr##+&*................",
".%&$......%*&+@##4l44f=$fl444_%+$02fff1flb#@+&..................",
".%&$........%*&+@@x44f=$f44f__%+$f1fff08s#@+*...................",
".%&$..........%*&+@@x4=$f44ffp%+$f1fflj##@&*....................",
".%&#............%*&+@@k$f44ffl%+$f1f8b##+&......................",
"..................%*&+@#xc4fff%+$f0p#$@+*.......................",
"....................%*&+@hxllf%+$fp##@&*........................",
"......................%*&+@hx.%+$x##@&*.........................",
".......................%%*&+@-%+$##+&...........................",
".........................%%*&*%+#@+*............................",
"...........................%%%%+@+*.............................",
".............................%%++...............................",
"..............................%+@...............................",
"..............................%+$...............................",
"..............................%+$...............................",
"..............................%+$...............................",
"..............................%+$...............................",
"..............................%+$...............................",
"................................................................"};
